<?xml version="1.0" standalone="no"?>
<!DOCTYPE svg PUBLIC "-//W3C//DTD SVG 20010904//EN"
 "http://www.w3.org/TR/2001/REC-SVG-20010904/DTD/svg10.dtd">
<svg version="1.0" xmlns="http://www.w3.org/2000/svg"
 width="300.000000pt" height="218.000000pt" viewBox="0 0 300.000000 218.000000"
 preserveAspectRatio="xMidYMid meet">

<g transform="translate(0.000000,218.000000) scale(0.100000,-0.100000)"
fill="#000000" stroke="none">
<path d="M179 2027 c-38 -29 -39 -42 -39 -602 0 -356 4 -553 10 -566 20 -37
63 -49 172 -49 l102 0 126 -125 c70 -69 133 -125 140 -125 8 0 71 56 140 125
l127 125 86 0 87 0 0 -178 c0 -167 1 -180 21 -201 11 -12 32 -26 46 -32 14 -5
204 -9 436 -9 l412 0 125 -125 c69 -69 130 -125 136 -125 7 0 67 56 135 125
l123 125 101 0 c56 0 116 5 133 11 64 22 62 3 62 603 0 366 -4 553 -11 569
-24 52 -19 52 -516 55 l-463 3 0 175 0 176 -29 29 -29 29 -809 0 c-619 -1
-812 -3 -824 -13z m1609 -234 l2 -162 -299 -3 -300 -3 -30 -29 -31 -30 0 -333
0 -333 -91 0 c-50 0 -98 -4 -107 -9 -10 -5 -66 -59 -127 -120 l-109 -111 -121
120 -122 120 -116 0 -117 0 0 530 0 530 783 -2 782 -3 3 -162z m332 -580 c0
-10 -33 -115 -72 -235 l-73 -218 -43 0 c-31 0 -43 4 -39 13 2 6 37 112 76 235
l72 222 39 0 c31 0 40 -4 40 -17z m-320 -103 c0 -40 0 -40 -75 -77 l-75 -38
75 -37 c75 -38 75 -39 75 -78 0 -29 -4 -40 -15 -40 -8 0 -67 27 -130 61 -105
55 -115 63 -115 89 0 34 4 37 126 104 123 68 134 69 134 16z m560 -21 c62 -34
114 -68 117 -75 14 -38 -7 -59 -126 -121 -65 -34 -121 -59 -125 -56 -3 4 -6
24 -6 45 0 37 1 38 75 76 l75 37 -75 38 c-75 37 -75 37 -75 77 0 29 4 40 15
40 8 0 64 -28 125 -61z"/>
<path d="M336 1864 c-11 -11 -17 -37 -18 -85 -1 -38 -2 -79 -2 -91 -1 -19 4
-22 24 -20 14 2 28 7 32 10 4 4 10 51 14 105 7 94 6 97 -14 97 -11 0 -28 -7
-36 -16z"/>
<path d="M464 1830 c-23 -9 -34 -46 -34 -116 0 -31 4 -44 14 -44 31 0 46 13
46 40 0 38 17 80 31 80 8 0 10 -19 7 -60 -4 -61 -4 -61 21 -58 23 3 27 10 37
58 7 36 15 55 25 55 11 0 13 -12 11 -57 -3 -51 -2 -58 15 -58 10 0 23 4 30 8
13 8 20 122 9 140 -5 8 -37 11 -92 9 -46 -1 -84 1 -84 6 0 9 -9 8 -36 -3z"/>
<path d="M763 1832 c-13 -2 -23 -6 -23 -10 0 -4 -5 -51 -10 -106 -5 -54 -8
-102 -5 -106 2 -4 16 -5 29 -3 18 4 27 14 31 35 5 19 13 28 23 27 40 -4 53 3
72 34 23 36 26 86 8 109 -13 16 -83 27 -125 20z m73 -57 c9 -23 -5 -65 -22
-65 -21 0 -27 22 -15 53 12 30 28 35 37 12z"/>
<path d="M1140 1824 c-38 -26 -50 -45 -50 -81 0 -74 96 -104 148 -47 41 46 26
114 -29 133 -41 14 -40 14 -69 -5z m55 -74 c0 -28 -4 -35 -20 -35 -13 0 -21 8
-23 23 -5 34 5 54 25 50 13 -2 18 -13 18 -38z"/>
<path d="M962 1821 c-6 -3 -14 -39 -17 -79 -7 -66 -6 -72 11 -72 32 0 42 13
49 62 5 36 12 49 29 54 20 6 36 22 36 35 0 9 -94 9 -108 0z"/>
<path d="M1305 1819 c-4 -5 1 -42 10 -80 16 -66 19 -70 44 -67 21 2 33 16 59
66 35 66 36 92 2 92 -13 0 -25 -12 -36 -37 -9 -21 -18 -33 -19 -28 -2 6 -6 22
-9 38 -7 28 -38 38 -51 16z"/>
<path d="M1505 1805 c-26 -26 -33 -72 -15 -105 22 -42 130 -42 130 0 0 16 -6
18 -37 14 l-38 -5 34 18 c49 26 58 45 38 77 -24 35 -78 36 -112 1z m70 -25
c-3 -5 -13 -10 -21 -10 -8 0 -12 5 -9 10 3 6 13 10 21 10 8 0 12 -4 9 -10z"/>
<path d="M395 1390 c-24 -25 -26 -30 -10 -30 16 0 17 -7 12 -69 -3 -39 -11
-79 -17 -90 -10 -20 -8 -21 42 -21 98 1 162 46 175 124 10 66 -48 116 -135
116 -29 0 -45 -7 -67 -30z m115 -39 c25 -47 3 -121 -36 -121 -16 0 -17 22 -8
94 7 49 26 61 44 27z"/>
<path d="M679 1331 c-62 -62 -24 -151 64 -151 44 0 67 13 67 38 0 10 -9 12
-39 7 -24 -4 -42 -2 -46 4 -3 6 1 11 10 11 24 0 72 27 79 45 6 17 -9 55 -28
67 -27 18 -78 8 -107 -21z m85 -20 c3 -4 -6 -13 -19 -19 -20 -9 -25 -9 -25 2
0 24 32 37 44 17z"/>
<path d="M881 1351 c-12 -8 -11 -20 4 -80 24 -91 26 -94 61 -87 25 6 35 18 63
82 28 63 32 77 20 85 -29 18 -46 9 -59 -32 -19 -55 -27 -56 -34 -4 -7 46 -23
56 -55 36z"/>
</g>
</svg>
